<?xml version="1.0" encoding="UTF-8"?>
<svg version="1.1" xmlns="http://www.w3.org/2000/svg" width="200" height="200">
<path d="M0 0 C1.2112706 0.32203903 2.4225412 0.64407806 3.67051697 0.97587585 C6.86955111 1.82911569 10.0667354 2.68892653 13.26348877 3.55065918 C15.21358648 4.07388142 17.16516598 4.59113118 19.11743164 5.10620117 C22.89327006 6.10340795 26.66574494 7.11247095 30.4375 8.125 C31.59290787 8.42932449 32.74831573 8.73364899 33.93873596 9.04719543 C50.45731776 13.53860184 50.45731776 13.53860184 55.15234375 20.76171875 C60.31575602 29.99107953 55.49348458 41.15331087 52.8828125 50.6171875 C52.44078797 52.2488306 51.99958366 53.88069611 51.55915833 55.51277161 C50.63723365 58.91957985 49.70770171 62.32418583 48.7722168 65.72729492 C47.5764881 70.07828011 46.39651204 74.43334275 45.22176647 78.79003429 C44.31314202 82.15522724 43.39795337 85.51860633 42.48061562 88.88143349 C42.04326074 90.48648719 41.60751779 92.09198106 41.17345238 93.69792747 C40.56496396 95.94389566 39.94809324 98.18739457 39.32885742 100.43041992 C39.15262848 101.08666351 38.97639954 101.7429071 38.79483032 102.41903687 C37.19747608 108.14378764 35.34795265 113.25388783 30.65234375 117.07421875 C29.770625 117.81091797 29.770625 117.81091797 28.87109375 118.5625 C24.94706356 121.30040289 20.73513626 121.20952158 16.15234375 120.76171875 C11.3279749 119.7930371 6.58572765 118.53219341 1.8359375 117.25390625 C0.45174897 116.88681997 -0.93252486 116.52005518 -2.31687927 116.15359497 C-5.20758185 115.38550817 -8.09597227 114.60933534 -10.9831543 113.828125 C-14.66518537 112.83318757 -18.35372163 111.86523407 -22.04469395 110.90408134 C-24.90262624 110.15544859 -27.75562235 109.3892089 -30.6075573 108.61807632 C-31.96495262 108.25394674 -33.3240045 107.89593037 -34.68472481 107.54442978 C-43.9578801 105.1386418 -50.70288704 102.87196872 -55.84765625 94.51171875 C-58.47186683 84.67092908 -54.31380034 74.09524547 -51.734375 64.53515625 C-51.31897195 62.97689072 -50.90400692 61.41850836 -50.48945618 59.86001587 C-49.62284837 56.60938203 -48.75057912 53.36033551 -47.87426758 50.11230469 C-46.7568703 45.96864857 -45.65440985 41.82118879 -44.55624676 37.67239952 C-43.70369297 34.4586579 -42.84289297 31.24716854 -41.97968483 28.03627396 C-41.5700674 26.50849205 -41.16303154 24.98001536 -40.75873375 23.45081711 C-35.1495523 2.28194012 -35.1495523 2.28194012 -27.84765625 -2.23828125 C-19.08927568 -6.41841743 -8.83748037 -2.37833185 0 0 Z M-18.84765625 23.76171875 C-19.07765823 26.2860137 -19.07765823 26.2860137 -17.84765625 28.76171875 C-12.75721489 31.30281762 -7.51673592 32.81063012 -2.02734375 34.2421875 C-1.20565704 34.45990311 -0.38397034 34.67761871 0.46261597 34.90193176 C2.18807537 35.35747117 3.91425582 35.81028741 5.64111328 36.26049805 C8.27871547 36.94957712 10.91282696 37.65098838 13.546875 38.35351562 C15.23027305 38.79631759 16.9138606 39.23839987 18.59765625 39.6796875 C19.38109406 39.88901413 20.16453186 40.09834076 20.97171021 40.31401062 C24.7867824 41.29916606 28.1743461 42.02510667 32.15234375 41.76171875 C33.35072584 39.43317412 33.35072584 39.43317412 34.15234375 36.76171875 C31.94912012 33.4568833 31.57104504 33.29656197 27.96557617 32.31958008 C27.10095261 32.07955765 26.23632904 31.83953522 25.34550476 31.59223938 C24.40906631 31.34523788 23.47262787 31.09823639 22.5078125 30.84375 C21.54587479 30.5816423 20.58393707 30.31953461 19.59284973 30.04948425 C17.55579774 29.49703662 15.51722503 28.95017078 13.47729492 28.40844727 C10.35931055 27.57939485 7.24688423 26.73163489 4.13476562 25.88085938 C2.15524984 25.34653644 0.17544108 24.81329749 -1.8046875 24.28125 C-2.73505325 24.02817581 -3.66541901 23.77510162 -4.62397766 23.51435852 C-5.93509773 23.1685096 -5.93509773 23.1685096 -7.27270508 22.81567383 C-8.03722488 22.61154373 -8.80174469 22.40741364 -9.58943176 22.19709778 C-14.70983453 21.14664191 -14.70983453 21.14664191 -18.84765625 23.76171875 Z M-21.84765625 40.76171875 C-24.13494359 42.60055756 -24.13494359 42.60055756 -23.97265625 45.38671875 C-23.93140625 46.17046875 -23.89015625 46.95421875 -23.84765625 47.76171875 C-18.67114162 50.12106508 -13.5602582 51.80265423 -8.0625 53.2421875 C-7.24318497 53.45990311 -6.42386993 53.67761871 -5.57972717 53.90193176 C-3.85847602 54.35751034 -2.13649131 54.81032557 -0.41381836 55.26049805 C2.21304283 55.9487469 4.83601339 56.65060553 7.45898438 57.35351562 C9.13910492 57.79640072 10.81943669 58.23848547 12.5 58.6796875 C13.27827652 58.88901413 14.05655304 59.09834076 14.8584137 59.31401062 C19.06138265 60.39944268 22.77019175 60.99359476 27.15234375 60.76171875 C27.81234375 59.11171875 28.47234375 57.46171875 29.15234375 55.76171875 C26.89674265 53.17677891 25.13152768 52.21159612 21.83618164 51.31958008 C20.96840591 51.07955765 20.10063019 50.83953522 19.20655823 50.59223938 C18.27214401 50.34523788 17.3377298 50.09823639 16.375 49.84375 C15.41210556 49.5816423 14.44921112 49.31953461 13.45713806 49.04948425 C11.42169885 48.49765846 9.38491673 47.95076581 7.34692383 47.40844727 C4.22736575 46.57755398 1.11253574 45.73053387 -2.00195312 44.88085938 C-3.98021021 44.34669782 -5.95871793 43.81346345 -7.9375 43.28125 C-8.86988998 43.02817581 -9.80227997 42.77510162 -10.76292419 42.51435852 C-11.63385208 42.28379257 -12.50477997 42.05322662 -13.40209961 41.81567383 C-14.16582382 41.61154373 -14.92954803 41.40741364 -15.71641541 41.19709778 C-18.1382902 40.628285 -18.1382902 40.628285 -21.84765625 40.76171875 Z M-28.84765625 61.76171875 C-29.26432292 64.26171875 -29.26432292 64.26171875 -28.84765625 66.76171875 C-25.11094711 70.49842789 -19.13216407 71.05686347 -14.09912109 72.38549805 C-11.98449137 72.94608129 -9.87514748 73.52404955 -7.765625 74.10351562 C-6.42085828 74.46330787 -5.07581442 74.82206619 -3.73046875 75.1796875 C-1.89572998 75.67118286 -1.89572998 75.67118286 -0.02392578 76.17260742 C2.91052237 76.71686748 4.45191284 76.95430905 7.15234375 75.76171875 C8.43671109 73.77794205 8.43671109 73.77794205 9.15234375 71.76171875 C7.43490941 68.78280609 6.34483216 67.83641254 3.08959961 66.57324219 C1.86120361 66.2590332 0.63280762 65.94482422 -0.6328125 65.62109375 C-1.28970566 65.44918518 -1.94659882 65.27727661 -2.62339783 65.10015869 C-4.71563847 64.55655811 -6.81256673 64.03425166 -8.91015625 63.51171875 C-10.32521236 63.14585365 -11.73993087 62.77868017 -13.15429688 62.41015625 C-21.26203646 59.63011034 -21.26203646 59.63011034 -28.84765625 61.76171875 Z " fill="#F6F6F6" transform="translate(97.84765625,40.23828125)"/>
</svg>
